# xmcd
# Track frame offsets:
# 183
# 11500
# 22528
# 38488
# 46620
# 60425
# 68910
# 96218
# 110418
# 120048
# 131058
# 141325
# 154893
# 164790
# 177430
# 188235
# 200098
# 211570
# 222340
# 231358
#
# Disc length: 3407 seconds
# Revision: 0
# Processed by: cddbd v1.5.1PL2 Copyright (c) Steve Scherf et al.
# Submitted via: VisiTrax 2.10.0.248 - For more info visit www.synapsa.com
#
DISCID=0f0d4d14
DTITLE=Fats Domino - The Very Best
DYEAR=1987
DGENRE=
TTITLE0=Blueberry Hill
TTITLE1=Blue Monday
TTITLE2=So Long
TTITLE3=Whole Lotta Lovin'
TTITLE4=Jambalaya
TTITLE5=Ballin' the Jack
TTITLE6=Please Don't Leave Me
TTITLE7=When the Saints Go Marchin In
TTITLE8=Yes, It's Me and I'm In Love Again
TTITLE9=I'm Walking
TTITLE10=My Blue Heaven
TTITLE11=Heartbreak Hill
TTITLE12=Walkin
TTITLE13=Let The Four Winds Blow
TTITLE14=Kansas City
TTITLE15=Why Don't You  Do Right?
TTITLE16=I'm Gonna be a Wheel Someday
TTITLE17=Ain't That a Shame?
TTITLE18=I'm Ready
TTITLE19=Domino Twist
EXTD=
EXTT0=
EXTT1=
EXTT2=
EXTT3=
EXTT4=
EXTT5=
EXTT6=
EXTT7=
EXTT8=
EXTT9=
EXTT10=
EXTT11=
EXTT12=
EXTT13=
EXTT14=
EXTT15=
EXTT16=
EXTT17=
EXTT18=
EXTT19=
PLAYORDER=
